<svg width="393" height="220" viewBox="0 0 393 220" fill="none" xmlns="http://www.w3.org/2000/svg">
<path d="M4.176 121V21.496H56.448C73.632 21.496 86.256 24.328 94.32 29.992C102.384 35.56 106.416 45.256 106.416 59.08C106.416 70.12 103.344 78.376 97.2 83.848C91.92 88.552 83.376 91.48 71.568 92.632C66.576 93.112 60.624 93.352 53.712 93.352V121H4.176ZM53.712 78.232H57.888C59.04 78.232 60 77.848 60.768 77.08C61.536 76.312 61.92 75.304 61.92 74.056V67.432C61.92 66.184 61.536 65.224 60.768 64.552C60 63.784 59.04 63.4 57.888 63.4H53.712V78.232ZM161.247 121L160.383 105.592H151.599L150.735 121H105.375C106.335 105.256 108.303 89.128 111.279 72.616C114.255 56.008 116.991 43.336 119.487 34.6L123.087 21.496H191.343C192.399 24.952 193.743 29.752 195.375 35.896C197.007 42.04 199.407 53.848 202.575 71.32C205.743 88.696 207.903 105.256 209.055 121H161.247ZM153.759 69.88L152.607 92.344H159.375L158.367 69.88H153.759ZM268.869 21.496H316.245V76.792C316.245 92.344 312.261 103.864 304.293 111.352C296.421 118.744 283.845 122.44 266.565 122.44H262.821C245.637 122.44 233.061 118.696 225.093 111.208C217.221 103.72 213.285 92.248 213.285 76.792V21.496H260.517V82.12C260.517 83.368 260.901 84.376 261.669 85.144C262.437 85.816 263.397 86.152 264.549 86.152C265.797 86.152 266.805 85.768 267.573 85C268.437 84.232 268.869 83.272 268.869 82.12V21.496ZM324.52 21.496H374.056V83.992H388.744V121H324.52V21.496Z" fill="#FC9A27"/>
<path fill-rule="evenodd" clip-rule="evenodd" d="M389 131H4V220H389V131ZM95.392 208V147.192H65.032L61.16 158.896H58.872L54.824 147.192H24.552V208H54.824V186L58.872 196.208H61.16L65.032 186V208H95.392ZM136.779 146.312H129.475C118.915 146.312 111.2 148.805 106.331 153.792C101.52 158.779 99.1148 166.611 99.1148 177.288C99.1148 187.965 101.549 195.915 106.419 201.136C111.288 206.299 118.973 208.88 129.475 208.88H136.779C147.28 208.88 154.936 206.299 159.747 201.136C164.616 195.915 167.051 187.965 167.051 177.288C167.051 166.611 164.645 158.779 159.835 153.792C155.024 148.805 147.339 146.312 136.779 146.312ZM130.619 185.472V175.264C130.619 174.56 130.824 173.973 131.235 173.504C131.704 173.035 132.291 172.8 132.995 172.8C133.757 172.8 134.373 173.035 134.843 173.504C135.371 173.973 135.635 174.56 135.635 175.264V185.472C135.635 186.235 135.371 186.851 134.843 187.32C134.373 187.789 133.757 188.024 132.995 188.024C132.291 188.024 131.704 187.789 131.235 187.32C130.824 186.851 130.619 186.235 130.619 185.472ZM201.176 208V190.224H203.112L203.728 192.336C204.901 196.853 205.722 202.075 206.192 208H235.144C233.325 198.496 230.656 190.605 227.136 184.328C231.301 181.277 233.384 176.555 233.384 170.16C233.384 161.712 230.92 155.787 225.992 152.384C221.064 148.923 213.349 147.192 202.848 147.192H170.904V208H201.176ZM203.728 183.096H201.176V172.8H203.728C204.432 172.8 205.018 173.035 205.488 173.504C205.957 173.915 206.192 174.501 206.192 175.264V180.544C206.192 181.307 205.957 181.923 205.488 182.392C205.018 182.861 204.432 183.096 203.728 183.096ZM271.348 198.584L271.876 208H301.092C300.388 198.379 299.068 188.259 297.132 177.64C295.196 166.963 293.729 159.747 292.732 155.992C291.735 152.237 290.913 149.304 290.268 147.192H248.556L246.356 155.2C244.831 160.539 243.159 168.283 241.34 178.432C239.521 188.523 238.319 198.379 237.732 208H265.452L265.98 198.584H271.348ZM266.596 190.488L267.3 176.76H270.116L270.732 190.488H266.596ZM335.152 208V190.224H337.088L337.704 192.336C338.877 196.853 339.699 202.075 340.168 208H369.12C367.301 198.496 364.632 190.605 361.112 184.328C365.277 181.277 367.36 176.555 367.36 170.16C367.36 161.712 364.896 155.787 359.968 152.384C355.04 148.923 347.325 147.192 336.824 147.192H304.88V208H335.152ZM337.704 183.096H335.152V172.8H337.704C338.408 172.8 338.995 173.035 339.464 173.504C339.933 173.915 340.168 174.501 340.168 175.264V180.544C340.168 181.307 339.933 181.923 339.464 182.392C338.995 182.861 338.408 183.096 337.704 183.096Z" fill="#FC9A27"/>
</svg>
