<svg width="128" height="128" viewBox="0 0 128 128" fill="none" xmlns="http://www.w3.org/2000/svg">
<rect width="128" height="128" fill="#0F023E"/>
<path d="M27.016 104V32.136H64.768C77.1787 32.136 86.296 34.1813 92.12 38.272C97.944 42.2933 100.856 49.296 100.856 59.28C100.856 67.2533 98.6373 73.216 94.2 77.168C90.3867 80.5653 84.216 82.68 75.688 83.512C72.0827 83.8587 67.784 84.032 62.792 84.032V104H27.016ZM62.792 73.112H65.808C66.64 73.112 67.3333 72.8347 67.888 72.28C68.4427 71.7253 68.72 70.9973 68.72 70.096V65.312C68.72 64.4107 68.4427 63.7173 67.888 63.232C67.3333 62.6773 66.64 62.4 65.808 62.4H62.792V73.112Z" fill="#FC9A27"/>
</svg>
